<mxfile host="Electron" modified="2024-06-10T13:40:13.292Z" agent="Mozilla/5.0 (Windows NT 10.0; Win64; x64) AppleWebKit/537.36 (KHTML, like Gecko) draw.io/24.5.1 Chrome/124.0.6367.207 Electron/30.0.6 Safari/537.36" etag="jqoZNmDfivVHn0qPPEib" version="24.5.1" type="device">
  <diagram name="Page-1" id="7QQ0_MF5za18XHAvt9v9">
    <mxGraphModel dx="2524" dy="854" grid="1" gridSize="10" guides="1" tooltips="1" connect="1" arrows="1" fold="1" page="1" pageScale="1" pageWidth="850" pageHeight="1100" math="0" shadow="0">
      <root>
        <mxCell id="0" />
        <mxCell id="1" parent="0" />
        <mxCell id="VXjMkk293uTIGhck-cAT-7" style="edgeStyle=orthogonalEdgeStyle;rounded=0;orthogonalLoop=1;jettySize=auto;html=1;exitX=1;exitY=0.5;exitDx=0;exitDy=0;exitPerimeter=0;entryX=0.333;entryY=0;entryDx=0;entryDy=0;entryPerimeter=0;" parent="1" target="VXjMkk293uTIGhck-cAT-6" edge="1">
          <mxGeometry relative="1" as="geometry">
            <mxPoint x="1135" y="197.5" as="sourcePoint" />
            <mxPoint x="1160" y="1100" as="targetPoint" />
            <Array as="points">
              <mxPoint x="1160" y="198" />
            </Array>
          </mxGeometry>
        </mxCell>
        <mxCell id="VXjMkk293uTIGhck-cAT-2" value="" style="shape=line;html=1;strokeWidth=6;strokeColor=#ff0000;" parent="1" vertex="1">
          <mxGeometry x="-70" y="190" width="1240" height="10" as="geometry" />
        </mxCell>
        <mxCell id="VXjMkk293uTIGhck-cAT-4" value="" style="ellipse;html=1;shape=startState;fillColor=#000000;strokeColor=#ff0000;" parent="1" vertex="1">
          <mxGeometry x="405" y="80" width="30" height="30" as="geometry" />
        </mxCell>
        <mxCell id="VXjMkk293uTIGhck-cAT-5" value="" style="edgeStyle=orthogonalEdgeStyle;html=1;verticalAlign=bottom;endArrow=open;endSize=8;rounded=0;fillColor=#f5f5f5;strokeColor=#ffffff;curved=1;strokeWidth=2;gradientColor=#b3b3b3;" parent="1" source="VXjMkk293uTIGhck-cAT-4" target="VXjMkk293uTIGhck-cAT-2" edge="1">
          <mxGeometry relative="1" as="geometry">
            <mxPoint x="480" y="150" as="targetPoint" />
            <Array as="points">
              <mxPoint x="420" y="160" />
              <mxPoint x="420" y="160" />
            </Array>
          </mxGeometry>
        </mxCell>
        <mxCell id="VXjMkk293uTIGhck-cAT-6" value="" style="ellipse;html=1;shape=endState;fillColor=#000000;strokeColor=#ff0000;" parent="1" vertex="1">
          <mxGeometry x="1150" y="1190" width="30" height="30" as="geometry" />
        </mxCell>
        <mxCell id="VXjMkk293uTIGhck-cAT-8" value="Startēt PecnosacijumaTests.jar testu" style="text;html=1;align=center;verticalAlign=middle;resizable=0;points=[];autosize=1;strokeColor=none;fillColor=none;spacing=3;" parent="1" vertex="1">
          <mxGeometry x="310" y="50" width="220" height="30" as="geometry" />
        </mxCell>
        <mxCell id="VXjMkk293uTIGhck-cAT-9" value="" style="ellipse;html=1;shape=endState;fillColor=#000000;strokeColor=#ff0000;" parent="1" vertex="1">
          <mxGeometry x="405" y="80" width="30" height="30" as="geometry" />
        </mxCell>
        <mxCell id="VXjMkk293uTIGhck-cAT-10" value="" style="endArrow=classic;html=1;rounded=0;" parent="1" edge="1">
          <mxGeometry width="50" height="50" relative="1" as="geometry">
            <mxPoint x="1050" y="599.29" as="sourcePoint" />
            <mxPoint x="1150" y="599.29" as="targetPoint" />
          </mxGeometry>
        </mxCell>
        <mxCell id="VXjMkk293uTIGhck-cAT-11" value="AIzvērt PecnosacijumaTests.jar testu&amp;nbsp;" style="text;html=1;align=center;verticalAlign=middle;resizable=0;points=[];autosize=1;strokeColor=none;fillColor=none;" parent="1" vertex="1">
          <mxGeometry x="1055" y="1240" width="220" height="30" as="geometry" />
        </mxCell>
        <mxCell id="VXjMkk293uTIGhck-cAT-20" style="edgeStyle=orthogonalEdgeStyle;rounded=0;orthogonalLoop=1;jettySize=auto;html=1;exitX=0.5;exitY=1;exitDx=0;exitDy=0;" parent="1" source="VXjMkk293uTIGhck-cAT-18" target="VXjMkk293uTIGhck-cAT-19" edge="1">
          <mxGeometry relative="1" as="geometry" />
        </mxCell>
        <mxCell id="VXjMkk293uTIGhck-cAT-18" value="Ievadīt vārdu" style="rounded=1;whiteSpace=wrap;html=1;" parent="1" vertex="1">
          <mxGeometry x="649.92" y="260" width="120" height="60" as="geometry" />
        </mxCell>
        <mxCell id="VXjMkk293uTIGhck-cAT-25" style="edgeStyle=orthogonalEdgeStyle;rounded=0;orthogonalLoop=1;jettySize=auto;html=1;exitX=0.5;exitY=1;exitDx=0;exitDy=0;entryX=0.5;entryY=0;entryDx=0;entryDy=0;" parent="1" source="VXjMkk293uTIGhck-cAT-19" target="VXjMkk293uTIGhck-cAT-37" edge="1">
          <mxGeometry relative="1" as="geometry">
            <mxPoint x="709.92" y="649.92" as="targetPoint" />
          </mxGeometry>
        </mxCell>
        <mxCell id="VXjMkk293uTIGhck-cAT-41" style="edgeStyle=orthogonalEdgeStyle;rounded=0;orthogonalLoop=1;jettySize=auto;html=1;exitX=1;exitY=0.5;exitDx=0;exitDy=0;entryX=0;entryY=0.5;entryDx=0;entryDy=0;" parent="1" source="VXjMkk293uTIGhck-cAT-19" target="VXjMkk293uTIGhck-cAT-34" edge="1">
          <mxGeometry relative="1" as="geometry" />
        </mxCell>
        <mxCell id="VXjMkk293uTIGhck-cAT-19" value="if vards.length() &amp;gt;= 3&lt;div&gt;&amp;amp;&amp;amp;&lt;/div&gt;&lt;div&gt;if vards.matches(&quot;[a-zA-Z+]&quot;)&lt;/div&gt;" style="rhombus;whiteSpace=wrap;html=1;" parent="1" vertex="1">
          <mxGeometry x="599.92" y="360" width="220" height="160" as="geometry" />
        </mxCell>
        <mxCell id="VXjMkk293uTIGhck-cAT-22" value="False" style="text;html=1;align=center;verticalAlign=middle;resizable=0;points=[];autosize=1;strokeColor=none;fillColor=none;" parent="1" vertex="1">
          <mxGeometry x="719.92" y="520" width="50" height="30" as="geometry" />
        </mxCell>
        <mxCell id="VXjMkk293uTIGhck-cAT-28" value="" style="endArrow=classic;html=1;rounded=0;entryX=0.5;entryY=0;entryDx=0;entryDy=0;exitX=0.629;exitY=0.869;exitDx=0;exitDy=0;exitPerimeter=0;" parent="1" source="VXjMkk293uTIGhck-cAT-2" target="VXjMkk293uTIGhck-cAT-18" edge="1">
          <mxGeometry width="50" height="50" relative="1" as="geometry">
            <mxPoint x="610" y="190" as="sourcePoint" />
            <mxPoint x="460" y="570" as="targetPoint" />
          </mxGeometry>
        </mxCell>
        <mxCell id="VXjMkk293uTIGhck-cAT-30" value="" style="endArrow=classic;html=1;rounded=0;" parent="1" edge="1">
          <mxGeometry width="50" height="50" relative="1" as="geometry">
            <mxPoint x="1050" y="280" as="sourcePoint" />
            <mxPoint x="1150" y="280" as="targetPoint" />
          </mxGeometry>
        </mxCell>
        <mxCell id="VXjMkk293uTIGhck-cAT-44" style="edgeStyle=orthogonalEdgeStyle;rounded=0;orthogonalLoop=1;jettySize=auto;html=1;exitX=0.5;exitY=1;exitDx=0;exitDy=0;entryX=0.5;entryY=0;entryDx=0;entryDy=0;" parent="1" source="VXjMkk293uTIGhck-cAT-31" target="VXjMkk293uTIGhck-cAT-33" edge="1">
          <mxGeometry relative="1" as="geometry" />
        </mxCell>
        <mxCell id="VXjMkk293uTIGhck-cAT-31" value="Sākt testu" style="rounded=1;whiteSpace=wrap;html=1;" parent="1" vertex="1">
          <mxGeometry x="150" y="260" width="120" height="60" as="geometry" />
        </mxCell>
        <mxCell id="VXjMkk293uTIGhck-cAT-32" value="" style="endArrow=classic;html=1;rounded=0;entryX=0.5;entryY=0;entryDx=0;entryDy=0;exitX=0.224;exitY=0.075;exitDx=0;exitDy=0;exitPerimeter=0;" parent="1" source="VXjMkk293uTIGhck-cAT-2" target="VXjMkk293uTIGhck-cAT-31" edge="1">
          <mxGeometry width="50" height="50" relative="1" as="geometry">
            <mxPoint x="270" y="700" as="sourcePoint" />
            <mxPoint x="320" y="650" as="targetPoint" />
          </mxGeometry>
        </mxCell>
        <mxCell id="VXjMkk293uTIGhck-cAT-43" style="edgeStyle=orthogonalEdgeStyle;rounded=0;orthogonalLoop=1;jettySize=auto;html=1;exitX=0;exitY=0.5;exitDx=0;exitDy=0;" parent="1" source="VXjMkk293uTIGhck-cAT-33" target="VXjMkk293uTIGhck-cAT-2" edge="1">
          <mxGeometry relative="1" as="geometry">
            <mxPoint x="50" y="210" as="targetPoint" />
            <Array as="points">
              <mxPoint x="10" y="430" />
            </Array>
          </mxGeometry>
        </mxCell>
        <mxCell id="VXjMkk293uTIGhck-cAT-47" style="edgeStyle=orthogonalEdgeStyle;rounded=0;orthogonalLoop=1;jettySize=auto;html=1;exitX=0.5;exitY=1;exitDx=0;exitDy=0;entryX=0.5;entryY=0;entryDx=0;entryDy=0;" parent="1" source="VXjMkk293uTIGhck-cAT-33" target="VXjMkk293uTIGhck-cAT-46" edge="1">
          <mxGeometry relative="1" as="geometry" />
        </mxCell>
        <mxCell id="VXjMkk293uTIGhck-cAT-33" value="if derigs == true" style="rhombus;whiteSpace=wrap;html=1;" parent="1" vertex="1">
          <mxGeometry x="140" y="370" width="140" height="120" as="geometry" />
        </mxCell>
        <mxCell id="VXjMkk293uTIGhck-cAT-34" value="derigs == true" style="rounded=1;whiteSpace=wrap;html=1;" parent="1" vertex="1">
          <mxGeometry x="880" y="400" width="130" height="80" as="geometry" />
        </mxCell>
        <mxCell id="VXjMkk293uTIGhck-cAT-86" style="edgeStyle=orthogonalEdgeStyle;rounded=0;orthogonalLoop=1;jettySize=auto;html=1;exitX=0.5;exitY=1;exitDx=0;exitDy=0;" parent="1" source="VXjMkk293uTIGhck-cAT-37" edge="1">
          <mxGeometry relative="1" as="geometry">
            <mxPoint x="710" y="220" as="targetPoint" />
            <Array as="points">
              <mxPoint x="710" y="655" />
              <mxPoint x="580" y="655" />
              <mxPoint x="580" y="220" />
            </Array>
          </mxGeometry>
        </mxCell>
        <mxCell id="VXjMkk293uTIGhck-cAT-37" value="Parāda ziņojumu, ka vārds ir pārāk īss vai satur ciparu" style="rounded=1;whiteSpace=wrap;html=1;" parent="1" vertex="1">
          <mxGeometry x="639.92" y="565" width="140" height="70" as="geometry" />
        </mxCell>
        <mxCell id="VXjMkk293uTIGhck-cAT-45" value="False" style="text;html=1;align=center;verticalAlign=middle;resizable=0;points=[];autosize=1;strokeColor=none;fillColor=none;" parent="1" vertex="1">
          <mxGeometry x="75" y="398" width="50" height="30" as="geometry" />
        </mxCell>
        <mxCell id="VXjMkk293uTIGhck-cAT-53" style="edgeStyle=orthogonalEdgeStyle;rounded=0;orthogonalLoop=1;jettySize=auto;html=1;exitX=0.5;exitY=1;exitDx=0;exitDy=0;entryX=0.5;entryY=0;entryDx=0;entryDy=0;" parent="1" source="VXjMkk293uTIGhck-cAT-46" target="VXjMkk293uTIGhck-cAT-52" edge="1">
          <mxGeometry relative="1" as="geometry" />
        </mxCell>
        <mxCell id="VXjMkk293uTIGhck-cAT-46" value="Parāda jautājumu&lt;div&gt;un&amp;nbsp;&lt;/div&gt;&lt;div&gt;atbilšu variantus&lt;/div&gt;&lt;div&gt;jautIzv&lt;/div&gt;" style="rounded=1;whiteSpace=wrap;html=1;" parent="1" vertex="1">
          <mxGeometry x="135" y="560" width="150" height="80" as="geometry" />
        </mxCell>
        <mxCell id="VXjMkk293uTIGhck-cAT-48" value="True" style="text;html=1;align=center;verticalAlign=middle;resizable=0;points=[];autosize=1;strokeColor=none;fillColor=none;" parent="1" vertex="1">
          <mxGeometry x="800" y="398" width="50" height="30" as="geometry" />
        </mxCell>
        <mxCell id="VXjMkk293uTIGhck-cAT-64" style="edgeStyle=orthogonalEdgeStyle;rounded=0;orthogonalLoop=1;jettySize=auto;html=1;exitX=0.5;exitY=1;exitDx=0;exitDy=0;entryX=0.5;entryY=0;entryDx=0;entryDy=0;" parent="1" source="VXjMkk293uTIGhck-cAT-49" target="VXjMkk293uTIGhck-cAT-63" edge="1">
          <mxGeometry relative="1" as="geometry" />
        </mxCell>
        <mxCell id="VXjMkk293uTIGhck-cAT-49" value="Pārbauda, vai lietotājs ir atbildējis uz visiem 10 jautājumiem&lt;div&gt;jautIzv &amp;lt; jautajums.length&lt;/div&gt;" style="rhombus;whiteSpace=wrap;html=1;" parent="1" vertex="1">
          <mxGeometry x="115" y="910" width="190" height="150" as="geometry" />
        </mxCell>
        <mxCell id="VXjMkk293uTIGhck-cAT-79" style="edgeStyle=orthogonalEdgeStyle;rounded=0;orthogonalLoop=1;jettySize=auto;html=1;exitX=1;exitY=0.5;exitDx=0;exitDy=0;entryX=0.5;entryY=1;entryDx=0;entryDy=0;" parent="1" source="VXjMkk293uTIGhck-cAT-52" target="VXjMkk293uTIGhck-cAT-78" edge="1">
          <mxGeometry relative="1" as="geometry" />
        </mxCell>
        <mxCell id="VXjMkk293uTIGhck-cAT-52" value="if izveletaAtb == pareizaAtb" style="rhombus;whiteSpace=wrap;html=1;" parent="1" vertex="1">
          <mxGeometry x="115" y="700" width="190" height="150" as="geometry" />
        </mxCell>
        <mxCell id="VXjMkk293uTIGhck-cAT-60" style="edgeStyle=orthogonalEdgeStyle;rounded=0;orthogonalLoop=1;jettySize=auto;html=1;exitX=0.5;exitY=1;exitDx=0;exitDy=0;entryX=0;entryY=0.5;entryDx=0;entryDy=0;" parent="1" source="VXjMkk293uTIGhck-cAT-72" target="VXjMkk293uTIGhck-cAT-49" edge="1">
          <mxGeometry relative="1" as="geometry">
            <mxPoint x="87.5" y="929.5" as="sourcePoint" />
            <Array as="points">
              <mxPoint x="15" y="985" />
            </Array>
          </mxGeometry>
        </mxCell>
        <mxCell id="VXjMkk293uTIGhck-cAT-57" value="True" style="text;html=1;align=center;verticalAlign=middle;resizable=0;points=[];autosize=1;strokeColor=none;fillColor=none;" parent="1" vertex="1">
          <mxGeometry x="70" y="740" width="50" height="30" as="geometry" />
        </mxCell>
        <mxCell id="VXjMkk293uTIGhck-cAT-59" value="False" style="text;html=1;align=center;verticalAlign=middle;resizable=0;points=[];autosize=1;strokeColor=none;fillColor=none;" parent="1" vertex="1">
          <mxGeometry x="305" y="740" width="50" height="30" as="geometry" />
        </mxCell>
        <mxCell id="VXjMkk293uTIGhck-cAT-62" value="False" style="text;html=1;align=center;verticalAlign=middle;resizable=0;points=[];autosize=1;strokeColor=none;fillColor=none;" parent="1" vertex="1">
          <mxGeometry x="310" y="950" width="50" height="30" as="geometry" />
        </mxCell>
        <mxCell id="VXjMkk293uTIGhck-cAT-83" style="edgeStyle=orthogonalEdgeStyle;rounded=0;orthogonalLoop=1;jettySize=auto;html=1;exitX=1;exitY=0.5;exitDx=0;exitDy=0;" parent="1" source="VXjMkk293uTIGhck-cAT-49" edge="1">
          <mxGeometry relative="1" as="geometry">
            <mxPoint x="210" y="510.0000000000002" as="targetPoint" />
            <Array as="points">
              <mxPoint x="510" y="985" />
              <mxPoint x="510" y="510" />
            </Array>
          </mxGeometry>
        </mxCell>
        <mxCell id="VXjMkk293uTIGhck-cAT-87" style="edgeStyle=orthogonalEdgeStyle;rounded=0;orthogonalLoop=1;jettySize=auto;html=1;exitX=1;exitY=0.5;exitDx=0;exitDy=0;" parent="1" source="VXjMkk293uTIGhck-cAT-63" edge="1">
          <mxGeometry relative="1" as="geometry">
            <mxPoint x="1160" y="1160.1428571428573" as="targetPoint" />
          </mxGeometry>
        </mxCell>
        <mxCell id="VXjMkk293uTIGhck-cAT-63" value="Lietotājam parāda rezultātu un jautājumi uz kuriem tika atbildēts nepareizi un pareizā atbilde uz nepareiziem jautājumu" style="rounded=1;whiteSpace=wrap;html=1;" parent="1" vertex="1">
          <mxGeometry x="125" y="1110" width="170" height="100" as="geometry" />
        </mxCell>
        <mxCell id="VXjMkk293uTIGhck-cAT-67" value="True" style="text;html=1;align=center;verticalAlign=middle;resizable=0;points=[];autosize=1;strokeColor=none;fillColor=none;" parent="1" vertex="1">
          <mxGeometry x="210" y="1060" width="50" height="30" as="geometry" />
        </mxCell>
        <mxCell id="VXjMkk293uTIGhck-cAT-68" value="" style="endArrow=classic;html=1;rounded=0;" parent="1" edge="1">
          <mxGeometry width="50" height="50" relative="1" as="geometry">
            <mxPoint x="1050" y="769.9999999999999" as="sourcePoint" />
            <mxPoint x="1150" y="769.9999999999999" as="targetPoint" />
          </mxGeometry>
        </mxCell>
        <mxCell id="VXjMkk293uTIGhck-cAT-69" value="" style="endArrow=classic;html=1;rounded=0;" parent="1" edge="1">
          <mxGeometry width="50" height="50" relative="1" as="geometry">
            <mxPoint x="1050" y="874.29" as="sourcePoint" />
            <mxPoint x="1150" y="874.29" as="targetPoint" />
          </mxGeometry>
        </mxCell>
        <mxCell id="VXjMkk293uTIGhck-cAT-70" value="" style="endArrow=classic;html=1;rounded=0;" parent="1" edge="1">
          <mxGeometry width="50" height="50" relative="1" as="geometry">
            <mxPoint x="1050" y="984.29" as="sourcePoint" />
            <mxPoint x="1150" y="984.29" as="targetPoint" />
          </mxGeometry>
        </mxCell>
        <mxCell id="VXjMkk293uTIGhck-cAT-72" value="&lt;div&gt;Tiek izvadīts teksts informējot lietotāju, ka atbilde bijusi pareiza&lt;/div&gt;rez = rez + 1&lt;div&gt;jautIzv ++;&lt;br&gt;&lt;div&gt;&lt;br&gt;&lt;/div&gt;&lt;/div&gt;" style="rounded=1;whiteSpace=wrap;html=1;" parent="1" vertex="1">
          <mxGeometry x="-60" y="830" width="150" height="90" as="geometry" />
        </mxCell>
        <mxCell id="VXjMkk293uTIGhck-cAT-73" style="edgeStyle=orthogonalEdgeStyle;rounded=0;orthogonalLoop=1;jettySize=auto;html=1;exitX=0;exitY=0.5;exitDx=0;exitDy=0;" parent="1" source="VXjMkk293uTIGhck-cAT-52" edge="1">
          <mxGeometry relative="1" as="geometry">
            <mxPoint y="849" as="targetPoint" />
            <Array as="points">
              <mxPoint y="775" />
              <mxPoint y="849" />
            </Array>
          </mxGeometry>
        </mxCell>
        <mxCell id="VXjMkk293uTIGhck-cAT-81" style="edgeStyle=orthogonalEdgeStyle;rounded=0;orthogonalLoop=1;jettySize=auto;html=1;exitX=1;exitY=0.5;exitDx=0;exitDy=0;entryX=0.5;entryY=0;entryDx=0;entryDy=0;" parent="1" source="VXjMkk293uTIGhck-cAT-78" target="VXjMkk293uTIGhck-cAT-49" edge="1">
          <mxGeometry relative="1" as="geometry" />
        </mxCell>
        <mxCell id="VXjMkk293uTIGhck-cAT-78" value="Tiek izvadīts teksts&lt;div&gt;informējot lieotāju, ka&lt;/div&gt;&lt;div&gt;atbilde ir bijusi nepareiza&lt;/div&gt;&lt;div&gt;jautIzv ++;&lt;/div&gt;" style="rounded=1;whiteSpace=wrap;html=1;direction=west;" parent="1" vertex="1">
          <mxGeometry x="310" y="837.5" width="155" height="75" as="geometry" />
        </mxCell>
        <mxCell id="VXjMkk293uTIGhck-cAT-84" value="" style="endArrow=classic;html=1;rounded=0;" parent="1" edge="1">
          <mxGeometry width="50" height="50" relative="1" as="geometry">
            <mxPoint x="1050" y="439.29" as="sourcePoint" />
            <mxPoint x="1150" y="439.29" as="targetPoint" />
          </mxGeometry>
        </mxCell>
        <mxCell id="VXjMkk293uTIGhck-cAT-85" style="edgeStyle=orthogonalEdgeStyle;rounded=0;orthogonalLoop=1;jettySize=auto;html=1;exitX=0.5;exitY=0;exitDx=0;exitDy=0;entryX=0.819;entryY=0.729;entryDx=0;entryDy=0;entryPerimeter=0;" parent="1" source="VXjMkk293uTIGhck-cAT-34" target="VXjMkk293uTIGhck-cAT-2" edge="1">
          <mxGeometry relative="1" as="geometry" />
        </mxCell>
        <mxCell id="7xNYh_JPl_De6YRx8Me5-1" value="True" style="text;html=1;align=center;verticalAlign=middle;resizable=0;points=[];autosize=1;strokeColor=none;fillColor=none;" vertex="1" parent="1">
          <mxGeometry x="150" y="480" width="50" height="30" as="geometry" />
        </mxCell>
      </root>
    </mxGraphModel>
  </diagram>
</mxfile>
